{"glyphs":{"0":{"ha":889,"x_min":56,"x_max":833,"o":"m 443 -21 q 292 20 363 -21 q 169 133 222 61 q 86 301 117 204 q 56 508 56 397 q 86 716 56 619 q 169 884 117 813 q 292 997 221 956 q 443 1038 363 1038 q 594 997 524 1038 q 719 884 665 956 q 803 716 772 813 q 833 508 833 619 q 802 301 833 397 q 718 133 771 204 q 594 20 665 61 q 443 -21 524 -21 m 443 6 q 576 45 519 6 q 668 153 632 85 q 722 313 704 221 q 740 508 740 404 q 722 704 740 613 q 668 864 704 796 q 576 972 632 932 q 443 1011 519 1011 q 311 972 367 1011 q 219 864 256 932 q 166 704 183 796 q 149 508 149 613 q 166 313 149 404 q 219 153 183 221 q 311 45 256 85 q 443 6 367 6 z "},"1":{"ha":426,"x_min":69,"x_max":338,"o":"m 122 0 l 122 3 q 157 43 143 25 q 178 81 171 61 q 189 122 186 100 q 192 174 192 144 l 192 868 l 69 868 l 69 871 q 172 944 124 903 q 263 1038 219 986 l 268 1038 l 268 174 q 271 122 268 144 q 281 81 274 100 q 303 43 289 61 q 338 3 317 25 l 338 0 l 122 0 z "},"2":{"ha":710,"x_min":14,"x_max":668,"o":"m 14 0 l 14 14 q 278 244 172 142 q 446 435 383 347 q 535 599 508 522 q 561 750 561 675 q 500 944 561 876 q 331 1011 439 1011 q 238 995 276 1011 q 169 951 199 979 q 115 885 139 924 q 69 801 92 847 l 61 804 l 97 993 q 196 1023 135 1008 q 335 1038 257 1038 q 478 1016 419 1038 q 575 958 538 994 q 630 870 613 921 q 647 761 647 819 q 613 596 647 676 q 513 433 579 515 q 348 261 446 350 q 121 72 250 172 l 483 72 q 542 79 518 72 q 585 100 567 86 q 621 136 604 114 q 657 189 638 158 l 668 185 l 611 0 l 14 0 z "},"3":{"ha":735,"x_min":56,"x_max":679,"o":"m 336 -21 q 198 -3 268 -21 q 85 40 128 14 l 56 215 l 64 218 q 125 126 97 165 q 183 60 153 86 q 249 19 213 33 q 338 6 286 6 q 456 30 407 6 q 534 96 504 54 q 578 194 564 138 q 592 313 592 250 q 527 533 592 460 q 336 606 463 606 q 233 588 272 606 q 158 544 193 571 l 146 558 l 561 944 l 113 944 l 143 1017 l 663 1017 l 663 1003 l 244 614 q 361 633 296 633 q 485 613 426 633 q 586 553 543 593 q 654 455 629 514 q 679 318 679 396 q 654 179 679 242 q 584 72 629 117 q 476 3 539 28 q 336 -21 413 -21 z "},"4":{"ha":760,"x_min":14,"x_max":711,"o":"m 456 3 q 483 43 472 25 q 501 81 494 61 q 509 122 507 100 q 511 174 511 144 l 511 264 l 14 264 l 14 278 l 497 1017 l 593 1017 l 49 294 l 511 294 l 511 681 l 586 681 l 586 294 l 711 294 l 700 264 l 586 264 l 586 174 q 588 122 586 144 q 597 81 590 100 q 614 43 603 61 q 642 3 625 25 l 642 0 l 456 0 l 456 3 z "},"5":{"ha":731,"x_min":49,"x_max":675,"o":"m 326 -21 q 185 -2 250 -21 q 81 40 119 17 l 49 229 l 57 232 q 114 138 86 179 q 174 67 142 96 q 247 22 207 38 q 338 6 286 6 q 450 30 403 6 q 528 97 497 54 q 573 196 558 139 q 588 318 588 253 q 572 442 588 386 q 523 537 556 497 q 440 599 490 576 q 321 621 390 621 q 125 556 206 621 l 111 567 l 185 1017 l 656 1017 l 642 944 l 201 944 l 143 592 q 226 635 179 619 q 338 650 272 650 q 474 628 413 650 q 581 564 536 606 q 651 462 626 522 q 675 326 675 401 q 651 186 675 250 q 582 76 626 122 q 472 5 538 31 q 326 -21 407 -21 z "},"6":{"ha":786,"x_min":63,"x_max":731,"o":"m 396 -21 q 261 10 322 -21 q 156 95 200 42 q 87 220 111 149 q 63 372 63 292 q 90 548 63 453 q 178 735 117 643 q 340 908 240 828 q 586 1038 440 988 l 592 1021 q 437 933 504 985 q 319 818 369 881 q 235 687 269 756 q 182 550 201 618 q 275 637 214 599 q 428 675 336 675 q 549 651 493 675 q 644 584 604 628 q 708 480 685 540 q 731 346 731 419 q 704 201 731 268 q 632 84 678 133 q 525 7 586 35 q 396 -21 464 -21 m 397 6 q 497 29 451 6 q 574 96 542 53 q 625 199 607 139 q 643 331 643 258 q 579 549 643 469 q 399 628 515 628 q 264 595 328 628 q 169 496 200 563 q 158 424 161 460 q 154 356 154 389 q 167 231 154 293 q 210 118 181 168 q 285 37 239 68 q 397 6 332 6 z "},"7":{"ha":649,"x_min":49,"x_max":656,"o":"m 106 0 q 200 274 144 143 q 320 524 256 406 q 455 747 385 642 q 594 944 525 853 l 49 944 l 65 1017 l 656 1017 l 656 1003 q 519 794 588 906 q 390 556 450 682 q 281 292 329 431 q 204 0 233 153 l 106 0 z "},"8":{"ha":736,"x_min":49,"x_max":688,"o":"m 367 -21 q 238 -3 296 -21 q 138 50 179 15 q 72 134 96 85 q 49 244 49 183 q 62 333 49 289 q 104 414 75 376 q 179 480 133 451 q 289 522 225 508 q 197 583 233 550 q 138 649 160 615 q 108 719 117 683 q 99 788 99 754 q 118 888 99 842 q 173 967 138 933 q 258 1019 208 1000 q 368 1038 308 1038 q 472 1021 424 1038 q 556 974 521 1004 q 610 901 590 944 q 631 806 631 858 q 621 737 631 772 q 588 669 611 701 q 524 608 564 636 q 422 563 483 581 q 565 483 513 525 q 645 400 618 440 q 680 323 672 360 q 688 258 688 286 q 662 135 688 188 q 592 47 636 82 q 490 -4 549 13 q 367 -21 432 -21 m 367 6 q 560 65 489 6 q 631 229 631 125 q 614 310 631 275 q 560 377 597 346 q 465 440 524 408 q 319 508 406 471 l 311 513 q 211 460 250 490 q 149 395 172 431 q 117 322 126 360 q 108 246 108 283 q 175 69 108 133 q 367 6 242 6 m 154 815 q 171 735 154 769 q 219 672 188 700 q 297 619 251 643 q 401 571 343 594 q 488 624 454 596 q 540 684 521 653 q 565 747 558 715 q 571 807 571 778 q 519 956 571 901 q 369 1011 468 1011 q 279 996 319 1011 q 211 955 239 981 q 169 893 183 929 q 154 815 154 857 z "},"9":{"ha":786,"x_min":56,"x_max":724,"o":"m 194 -4 q 349 84 282 32 q 467 199 417 136 q 551 329 517 261 q 604 467 585 397 q 511 380 572 418 q 358 342 450 342 q 238 365 293 342 q 142 433 182 389 q 78 537 101 476 q 56 671 56 597 q 82 816 56 749 q 154 933 108 883 q 260 1010 200 982 q 390 1038 321 1038 q 525 1006 464 1038 q 631 922 586 975 q 699 797 675 868 q 724 644 724 725 q 697 469 724 564 q 608 281 669 374 q 446 109 546 189 q 200 -21 346 29 l 194 -4 m 386 389 q 522 422 458 389 q 617 521 586 454 q 628 592 625 557 q 632 661 632 628 q 619 786 632 724 q 576 899 606 849 q 501 980 547 949 q 389 1011 454 1011 q 290 988 335 1011 q 212 921 244 964 q 161 818 179 878 q 143 686 143 758 q 207 468 143 547 q 386 389 271 389 z "}," ":{"ha":208,"x_min":0,"x_max":0,"o":""},",":{"ha":283,"x_min":56,"x_max":215,"o":"m 56 -192 q 115 -114 92 -158 q 139 -32 139 -69 q 124 17 139 -11 q 88 67 108 46 l 88 69 l 165 128 q 201 86 188 111 q 215 33 215 61 q 201 -41 215 -6 q 165 -106 186 -76 q 117 -162 143 -136 q 67 -206 90 -187 l 56 -192 z "},"-":{"ha":390,"x_min":42,"x_max":349,"o":"m 42 365 l 42 421 l 349 421 l 349 365 l 42 365 z "},".":{"ha":275,"x_min":72,"x_max":203,"o":"m 138 -4 q 92 15 111 -4 q 72 61 72 33 q 92 108 72 89 q 138 126 111 126 q 184 108 165 126 q 203 61 203 89 q 184 15 203 33 q 138 -4 165 -4 z "},"A":{"ha":868,"x_min":7,"x_max":861,"o":"m 414 936 l 226 411 l 600 411 l 414 936 m 163 0 l 7 0 l 7 3 q 39 37 26 21 q 61 70 51 53 q 80 111 71 88 q 101 168 89 135 l 415 1029 l 453 1029 l 771 156 q 794 93 785 117 q 813 53 804 69 q 833 26 822 38 q 861 3 844 15 l 861 0 l 688 0 l 688 3 q 707 58 701 21 q 690 158 713 94 l 610 383 l 215 383 l 136 161 q 126 60 113 96 q 163 3 139 24 l 163 0 z "},"B":{"ha":801,"x_min":72,"x_max":769,"o":"m 72 0 l 72 3 q 100 43 89 25 q 117 80 111 61 q 126 121 124 99 q 128 172 128 143 l 128 844 q 126 896 128 874 q 117 937 124 918 q 100 974 111 956 q 72 1014 89 992 l 72 1017 q 206 1017 158 1017 q 285 1019 254 1018 q 337 1022 315 1021 q 393 1022 358 1022 q 565 1000 500 1022 q 665 943 629 978 q 712 867 700 908 q 724 788 724 825 q 712 703 724 743 q 677 629 700 663 q 620 572 654 596 q 540 536 586 549 q 646 506 603 529 q 717 448 689 482 q 757 371 744 414 q 769 282 769 328 q 747 167 769 219 q 679 78 725 115 q 563 20 633 40 q 397 0 493 0 l 72 0 m 439 543 q 538 564 497 543 q 602 618 578 585 q 637 694 626 651 q 647 778 647 736 q 389 994 647 994 q 290 992 338 994 q 203 988 243 990 l 203 543 l 439 543 m 393 28 q 616 96 546 28 q 686 276 686 164 q 628 449 686 382 q 453 515 571 515 l 203 515 l 203 38 q 293 31 244 33 q 393 28 342 28 z "},"C":{"ha":1031,"x_min":56,"x_max":961,"o":"m 933 88 q 877 53 914 72 q 791 18 840 35 q 682 -10 742 1 q 558 -21 622 -21 q 346 20 439 -21 q 188 133 253 61 q 90 302 124 206 q 56 510 56 399 q 93 717 56 621 q 200 885 131 814 q 369 997 269 956 q 594 1038 469 1038 q 693 1031 644 1038 q 785 1015 742 1025 q 866 992 829 1004 q 928 968 903 979 l 956 772 l 944 769 q 790 953 875 897 q 589 1010 706 1010 q 393 972 476 1010 q 256 867 310 933 q 174 708 201 800 q 147 510 147 617 q 172 310 147 403 q 249 151 197 218 q 379 45 301 83 q 564 7 457 7 q 701 27 642 7 q 808 85 761 47 q 888 177 854 122 q 950 303 922 232 l 961 300 l 933 88 z "},"D":{"ha":996,"x_min":72,"x_max":940,"o":"m 72 3 q 100 51 89 29 q 117 94 111 72 q 126 142 124 117 q 128 203 128 168 l 128 814 q 126 874 128 849 q 117 922 124 900 q 100 966 111 944 q 72 1014 89 988 l 72 1017 q 185 1017 142 1017 q 266 1019 228 1018 q 348 1022 304 1021 q 463 1022 392 1022 q 663 989 574 1022 q 813 891 751 956 q 908 731 875 826 q 940 513 940 636 q 810 132 940 264 q 435 0 679 0 l 72 0 l 72 3 m 203 996 l 203 26 l 421 28 q 617 58 536 28 q 750 147 699 89 q 825 292 801 206 q 849 493 849 379 q 748 872 849 751 q 449 994 647 993 l 203 996 z "},"E":{"ha":813,"x_min":72,"x_max":792,"o":"m 729 0 l 72 0 l 72 3 q 113 80 100 46 q 126 160 126 114 l 126 857 q 113 938 126 904 q 72 1014 100 971 l 72 1017 l 660 1017 l 714 815 l 703 811 q 657 875 679 844 q 615 930 635 906 q 578 969 596 954 q 544 985 560 983 l 203 993 l 203 525 l 426 525 q 453 538 440 525 q 479 568 467 550 q 503 606 492 586 q 525 643 514 626 l 536 643 l 536 386 l 525 386 q 503 419 515 400 q 479 456 492 439 q 453 485 467 474 q 426 497 440 497 l 203 497 l 203 24 l 554 33 q 672 89 621 36 q 781 229 724 142 l 792 225 l 729 0 z "},"F":{"ha":736,"x_min":72,"x_max":715,"o":"m 260 0 l 72 0 l 72 3 q 99 41 89 24 q 116 76 110 58 q 125 115 122 94 q 128 164 128 136 l 128 853 q 125 901 128 881 q 116 940 122 922 q 99 976 110 958 q 72 1014 89 993 l 72 1017 l 672 1017 l 715 815 l 704 811 q 658 874 681 843 q 617 930 636 906 q 579 969 597 954 q 546 985 561 985 l 204 993 l 204 539 l 428 539 q 455 551 442 539 q 481 582 468 564 q 504 620 493 600 q 526 657 515 640 l 538 657 l 538 400 l 526 400 q 505 433 517 414 q 481 470 493 453 q 455 499 468 488 q 428 511 442 511 l 204 511 l 204 164 q 206 115 204 136 q 215 76 208 94 q 232 41 221 58 q 260 3 243 24 l 260 0 z "},"G":{"ha":1114,"x_min":56,"x_max":1067,"o":"m 1011 126 q 949 84 986 110 q 859 35 911 58 q 740 -4 807 13 q 588 -21 672 -21 q 365 20 464 -21 q 198 133 267 61 q 92 301 129 204 q 56 508 56 397 q 94 716 56 619 q 204 884 132 813 q 380 997 276 956 q 613 1038 483 1038 q 726 1031 672 1038 q 825 1015 779 1025 q 907 992 871 1004 q 968 971 943 981 l 997 772 l 986 768 q 841 951 931 893 q 600 1010 751 1010 q 399 971 485 1010 q 258 864 314 932 q 174 704 201 796 q 147 507 147 613 q 172 310 147 401 q 249 152 196 219 q 385 46 301 85 q 588 7 468 7 q 729 21 664 7 q 842 63 794 35 q 915 132 889 90 q 942 228 942 174 q 939 318 942 281 q 928 381 936 356 q 908 425 921 407 q 878 458 896 443 l 878 461 l 1067 461 l 1067 458 q 1039 424 1050 442 q 1022 385 1028 407 q 1013 335 1015 364 q 1011 265 1011 306 l 1011 126 z "},"H":{"ha":989,"x_min":72,"x_max":917,"o":"m 72 3 q 100 43 89 25 q 117 80 111 61 q 126 121 124 99 q 128 172 128 143 l 128 844 q 126 896 128 874 q 117 937 124 918 q 100 974 111 956 q 72 1014 89 992 l 72 1017 l 258 1017 l 258 1014 q 231 974 242 992 q 213 937 219 956 q 205 896 207 918 q 203 844 203 874 l 203 539 l 786 539 l 786 844 q 784 896 786 874 q 776 937 782 918 q 758 974 769 956 q 731 1014 747 992 l 731 1017 l 917 1017 l 917 1014 q 889 974 900 992 q 872 937 878 956 q 863 896 865 918 q 861 844 861 874 l 861 172 q 863 121 861 143 q 872 80 865 99 q 889 43 878 61 q 917 3 900 25 l 917 0 l 731 0 l 731 3 q 758 43 747 25 q 776 80 769 61 q 784 121 782 99 q 786 172 786 143 l 786 511 l 203 511 l 203 172 q 205 121 203 143 q 213 80 207 99 q 231 43 219 61 q 258 3 242 25 l 258 0 l 72 0 l 72 3 z "},"I":{"ha":331,"x_min":72,"x_max":260,"o":"m 74 3 q 101 43 90 25 q 118 80 113 61 q 126 121 124 99 q 128 172 128 143 l 128 844 q 126 896 128 874 q 117 937 124 918 q 100 974 111 956 q 72 1014 89 992 l 72 1017 l 258 1017 l 258 1014 q 231 974 242 992 q 213 937 219 956 q 205 896 207 918 q 203 844 203 874 l 203 172 q 206 121 203 143 q 215 80 208 99 q 232 43 221 61 q 260 3 243 25 l 258 0 l 72 0 l 74 3 z "},"J":{"ha":493,"x_min":40,"x_max":435,"o":"m 379 164 q 333 27 379 75 q 201 -21 288 -21 q 133 -13 168 -21 q 65 10 99 -6 l 40 183 l 51 188 q 138 53 94 100 q 225 7 182 7 q 283 40 261 7 q 304 142 304 74 l 304 844 q 302 896 304 874 q 294 937 300 918 q 276 974 288 956 q 249 1014 265 992 l 249 1017 l 435 1017 l 435 1014 q 407 974 418 992 q 390 937 396 956 q 381 896 383 918 q 379 844 379 874 l 379 164 z "},"K":{"ha":839,"x_min":72,"x_max":825,"o":"m 74 3 q 101 43 90 25 q 118 80 113 61 q 126 121 124 99 q 128 172 128 143 l 128 844 q 126 896 128 874 q 117 937 124 918 q 100 974 111 956 q 72 1014 89 992 l 72 1017 l 258 1017 l 258 1014 q 231 974 242 992 q 213 937 219 956 q 205 896 207 918 q 203 844 203 874 l 203 172 q 206 121 203 143 q 215 80 208 99 q 232 43 221 61 q 260 3 243 25 l 258 0 l 72 0 l 74 3 m 686 0 l 253 529 l 568 863 q 608 948 614 911 q 571 1014 601 985 l 571 1017 l 800 1017 l 800 1014 q 735 978 763 996 q 686 942 707 960 q 647 905 665 924 q 610 865 629 886 l 322 561 l 647 164 q 703 98 681 124 q 745 55 726 72 q 782 26 764 38 q 824 3 800 14 l 825 0 l 686 0 z "},"L":{"ha":751,"x_min":72,"x_max":731,"o":"m 72 0 l 72 3 q 100 43 89 25 q 117 80 111 61 q 126 121 124 99 q 128 172 128 143 l 128 844 q 126 896 128 874 q 117 937 124 918 q 100 974 111 956 q 72 1014 89 992 l 72 1017 l 258 1017 l 258 1014 q 231 974 242 992 q 213 937 219 956 q 205 896 207 918 q 203 844 203 874 l 203 24 l 492 33 q 611 83 560 36 q 719 229 663 131 l 731 225 l 667 0 l 72 0 z "},"M":{"ha":1171,"x_min":43,"x_max":1128,"o":"m 54 0 l 54 3 q 91 49 76 28 q 114 91 106 69 q 125 137 122 113 q 128 194 128 161 l 128 881 q 106 955 124 928 q 43 1014 88 982 l 43 1017 l 196 1017 l 590 135 l 988 1017 l 1128 1017 l 1128 1014 q 1086 980 1103 996 q 1060 945 1069 964 q 1047 902 1050 926 q 1043 843 1043 878 l 1043 176 q 1045 124 1043 146 q 1053 82 1047 101 q 1071 44 1060 63 q 1099 3 1082 25 l 1099 0 l 914 0 l 914 3 q 942 44 931 25 q 959 82 953 63 q 968 124 965 101 q 971 176 971 147 l 971 908 l 575 31 l 554 31 l 156 913 l 160 194 q 164 137 160 161 q 179 91 168 113 q 210 49 190 69 q 260 3 229 28 l 260 0 l 54 0 z "},"N":{"ha":994,"x_min":17,"x_max":939,"o":"m 154 878 l 160 192 q 164 135 160 160 q 178 90 168 111 q 208 49 189 69 q 257 3 226 28 l 257 0 l 58 0 l 58 3 q 94 49 81 28 q 115 90 107 69 q 125 135 122 111 q 128 192 128 160 l 128 908 q 76 971 104 943 q 17 1014 47 999 l 17 1017 l 140 1017 l 842 136 l 838 825 q 834 881 838 857 q 822 926 831 906 q 797 968 813 947 q 754 1014 781 989 l 754 1017 l 939 1017 l 939 1014 q 903 969 917 989 q 883 928 890 949 q 872 883 875 907 q 869 825 869 858 l 869 0 l 857 -4 l 154 878 z "},"O":{"ha":1126,"x_min":56,"x_max":1071,"o":"m 563 -21 q 361 19 454 -21 q 201 131 268 60 q 94 298 133 201 q 56 507 56 394 q 94 717 56 619 q 201 885 133 814 q 361 997 268 956 q 563 1038 454 1038 q 764 997 671 1038 q 925 885 857 956 q 1032 717 993 814 q 1071 507 1071 619 q 1032 298 1071 394 q 925 131 993 201 q 764 19 857 60 q 563 -21 671 -21 m 563 7 q 735 44 658 7 q 867 149 813 82 q 950 307 921 215 q 979 507 979 399 q 950 706 979 614 q 867 866 921 799 q 735 972 813 933 q 563 1010 658 1010 q 390 972 467 1010 q 258 866 313 933 q 176 706 204 799 q 147 507 147 614 q 176 308 147 400 q 258 150 204 217 q 390 45 313 83 q 563 7 467 7 z "},"P":{"ha":760,"x_min":72,"x_max":732,"o":"m 72 3 q 100 43 89 25 q 117 80 111 61 q 126 121 124 99 q 128 172 128 143 l 128 844 q 126 896 128 874 q 117 937 124 918 q 100 974 111 956 q 72 1014 89 992 l 72 1017 l 410 1017 q 565 994 503 1017 q 664 934 626 972 q 717 846 701 896 q 732 742 732 796 q 710 615 732 672 q 644 516 688 557 q 536 453 600 475 q 390 431 472 431 l 203 431 l 203 172 q 205 121 203 143 q 213 80 207 99 q 231 43 219 61 q 258 3 242 25 l 258 0 l 72 0 l 72 3 m 390 989 q 317 988 360 989 q 203 985 275 988 l 203 458 l 389 458 q 510 479 460 458 q 592 538 560 500 q 639 627 624 575 q 654 742 654 679 q 633 867 654 818 q 575 942 611 915 q 491 979 539 969 q 390 989 443 989 z "},"Q":{"ha":1126,"x_min":56,"x_max":1128,"o":"m 722 -124 q 888 -170 811 -162 q 1026 -164 964 -178 q 1128 -131 1088 -150 l 1093 -204 q 1031 -228 1069 -219 q 943 -236 993 -236 q 810 -219 869 -236 q 703 -175 750 -201 q 624 -119 657 -149 q 568 -62 590 -89 q 535 -19 546 -36 q 361 19 442 -15 q 201 131 268 60 q 94 298 133 201 q 56 507 56 394 q 94 717 56 619 q 201 885 133 814 q 361 997 268 956 q 563 1038 454 1038 q 764 997 671 1038 q 925 885 857 956 q 1032 717 993 814 q 1071 507 1071 619 q 1032 298 1071 394 q 925 131 993 201 q 764 19 857 60 q 567 -21 672 -19 q 722 -124 646 -89 m 563 7 q 735 44 658 7 q 867 149 813 82 q 950 307 921 215 q 979 507 979 399 q 950 706 979 614 q 867 866 921 799 q 735 972 813 933 q 563 1010 658 1010 q 390 972 467 1010 q 258 866 313 933 q 176 706 204 799 q 147 507 147 614 q 176 308 147 400 q 258 150 204 217 q 390 45 313 83 q 563 7 467 7 z "},"R":{"ha":858,"x_min":72,"x_max":844,"o":"m 72 0 l 72 3 q 100 43 89 25 q 117 80 111 61 q 126 121 124 99 q 128 172 128 143 l 128 844 q 126 896 128 874 q 117 937 124 918 q 100 974 111 956 q 72 1014 89 992 l 72 1017 l 429 1017 q 647 951 581 1017 q 714 778 714 886 q 703 683 714 728 q 668 599 692 638 q 608 533 644 561 q 522 492 572 506 l 693 171 q 763 60 729 99 q 844 3 796 22 l 844 0 l 699 0 l 444 479 l 203 479 l 203 172 q 205 121 203 143 q 213 80 207 99 q 231 43 219 61 q 258 3 242 25 l 258 0 l 72 0 m 415 989 l 335 989 q 203 988 281 989 l 203 507 l 417 507 q 518 529 476 507 q 585 588 560 551 q 623 674 611 625 q 635 776 635 722 q 624 863 635 824 q 589 930 614 901 q 522 974 564 958 q 415 989 479 989 z "},"S":{"ha":740,"x_min":49,"x_max":692,"o":"m 622 803 l 611 799 q 562 901 590 861 q 500 966 533 942 q 428 1000 467 990 q 347 1010 389 1010 q 247 994 289 1010 q 180 952 206 978 q 142 892 154 926 q 129 824 129 858 q 153 730 129 768 q 215 663 176 692 q 302 613 253 635 q 404 569 351 592 q 510 520 458 546 q 601 458 561 494 q 667 373 642 422 q 692 254 692 324 q 663 127 692 179 q 586 42 635 75 q 474 -6 538 8 q 343 -21 411 -21 q 201 -6 269 -21 q 76 32 133 8 l 49 229 l 60 233 q 179 61 107 115 q 371 7 251 7 q 557 67 496 7 q 618 226 618 126 q 596 332 618 289 q 537 406 574 375 q 452 460 500 438 q 353 506 404 483 q 249 552 300 528 q 159 609 199 576 q 95 688 119 642 q 71 799 71 733 q 153 977 71 917 q 369 1038 235 1038 q 492 1026 435 1038 q 594 996 550 1014 l 622 803 z "},"T":{"ha":881,"x_min":21,"x_max":860,"o":"m 533 0 l 347 0 l 347 3 q 376 43 365 25 q 392 80 386 61 q 401 121 399 99 q 403 172 403 143 l 403 992 l 190 986 q 155 965 175 986 q 114 912 135 943 q 72 844 93 881 q 32 775 50 807 l 21 779 l 75 1017 l 806 1017 l 860 779 l 849 775 q 808 844 829 807 q 767 912 788 881 q 726 965 746 943 q 690 986 706 986 l 478 992 l 478 172 q 480 121 478 143 q 488 80 482 99 q 506 43 494 61 q 533 3 517 25 l 533 0 z "},"U":{"ha":950,"x_min":56,"x_max":925,"o":"m 490 -21 q 344 -1 413 -21 q 224 61 275 18 q 142 170 172 104 q 111 331 111 236 l 111 840 q 109 893 111 871 q 101 935 107 915 q 83 973 94 954 q 56 1014 72 992 l 56 1017 l 242 1017 l 242 1014 q 200 939 214 976 q 186 840 186 901 l 186 335 q 211 183 186 244 q 279 83 236 121 q 380 27 322 44 q 503 10 438 10 q 651 38 592 10 q 746 113 711 65 q 795 220 781 160 q 810 347 810 281 l 810 822 q 806 880 810 856 q 790 926 801 904 q 760 968 779 947 q 710 1014 740 989 l 710 1017 l 925 1017 l 925 1014 q 882 968 899 989 q 856 926 865 947 q 842 880 846 904 q 839 822 839 856 l 839 349 q 822 207 839 274 q 763 90 804 140 q 656 9 722 39 q 490 -21 589 -21 z "},"V":{"ha":867,"x_min":0,"x_max":867,"o":"m 414 -11 l 100 858 q 77 915 88 892 q 56 956 67 938 q 31 988 44 974 q 0 1014 18 1001 l 0 1017 l 204 1017 l 204 1014 q 174 951 185 993 q 182 854 163 908 l 454 88 l 711 806 q 729 884 728 850 q 724 943 731 918 q 705 985 717 968 q 682 1014 693 1001 l 682 1017 l 867 1017 l 867 1014 q 827 978 843 996 q 799 937 811 960 q 774 884 786 914 q 747 813 763 854 l 451 -11 l 414 -11 z "},"W":{"ha":1318,"x_min":14,"x_max":1304,"o":"m 357 -12 l 96 861 q 77 919 85 896 q 61 960 69 943 q 42 989 53 976 q 14 1014 31 1001 l 14 1017 l 207 1017 l 207 1014 q 190 992 200 1004 q 174 963 181 981 q 167 919 168 944 q 176 858 165 893 l 399 111 l 635 772 l 604 861 q 583 919 592 896 q 564 960 574 943 q 542 989 554 976 q 513 1014 529 1001 l 513 1017 l 717 1017 l 717 1014 l 696 993 q 678 965 685 982 q 671 922 671 947 q 683 858 671 896 l 942 104 l 1151 813 q 1163 887 1163 854 q 1156 944 1163 919 q 1140 985 1150 968 q 1119 1014 1129 1001 l 1119 1017 l 1304 1017 l 1304 1014 q 1263 978 1279 996 q 1233 937 1246 960 q 1208 884 1219 914 q 1185 813 1197 854 l 939 -12 l 901 -12 l 651 724 l 394 -12 l 357 -12 z "},"X":{"ha":850,"x_min":7,"x_max":843,"o":"m 196 0 l 7 0 l 7 3 q 56 38 33 19 q 97 77 78 56 q 136 126 117 99 q 179 190 156 154 l 390 528 l 169 881 q 110 964 135 935 q 49 1014 85 993 l 49 1017 l 258 1017 l 258 1014 q 224 965 225 999 q 251 888 224 932 l 443 582 l 606 826 q 651 902 636 872 q 667 952 667 932 q 654 986 668 972 q 613 1014 640 1000 l 613 1017 l 801 1017 l 801 1014 q 755 979 774 997 q 719 940 736 961 q 685 891 703 918 q 643 826 668 864 l 460 554 l 722 136 q 782 53 757 82 q 843 3 807 24 l 843 0 l 633 0 l 633 3 q 667 51 667 18 q 640 129 668 85 l 408 499 l 217 190 q 171 115 188 144 q 150 65 154 85 q 157 31 146 44 q 196 3 168 17 l 196 0 z "},"Y":{"ha":792,"x_min":0,"x_max":792,"o":"m 299 3 q 326 37 315 21 q 342 69 336 53 q 351 104 349 86 q 354 147 354 122 l 354 475 l 119 879 q 62 963 88 933 q 0 1014 36 993 l 0 1017 l 215 1017 l 215 1014 q 181 965 182 999 q 203 888 179 931 l 419 513 l 607 826 q 639 894 631 865 q 645 946 647 924 q 631 984 643 968 q 603 1014 619 1000 l 603 1017 l 792 1017 l 792 1014 q 745 979 764 997 q 710 940 726 961 q 678 891 694 918 q 639 826 661 864 l 429 478 l 429 147 q 431 103 429 122 q 440 69 433 85 q 457 37 446 53 q 485 3 468 21 l 485 0 l 299 0 l 299 3 z "},"Z":{"ha":844,"x_min":42,"x_max":803,"o":"m 42 0 l 42 15 l 688 994 l 322 983 q 192 925 247 981 q 85 774 138 869 l 74 778 l 139 1017 l 783 1017 l 783 1001 l 139 21 l 554 33 q 682 91 625 36 q 792 251 739 146 l 803 247 l 735 0 l 42 0 z "},"a":{"ha":644,"x_min":54,"x_max":631,"o":"m 250 29 q 357 51 307 29 q 436 101 407 72 l 436 347 q 324 325 379 340 q 224 285 268 310 q 153 224 181 260 q 125 140 125 189 q 155 60 125 92 q 250 29 185 29 m 525 -17 q 459 10 481 -17 q 436 78 438 38 q 342 9 400 39 q 217 -21 285 -21 q 99 17 143 -21 q 54 121 54 54 q 92 226 54 182 q 186 301 129 271 q 310 347 243 331 q 436 369 376 364 l 436 497 q 428 551 436 525 q 403 596 421 576 q 356 627 386 615 q 279 639 325 639 q 172 621 222 639 q 85 578 121 603 l 78 588 q 181 655 119 629 q 319 681 243 681 q 414 667 378 681 q 470 629 450 653 q 498 575 490 606 q 506 511 506 544 l 506 92 q 519 48 506 64 q 560 32 532 32 q 599 43 583 32 q 626 65 615 54 l 631 63 q 619 38 626 51 q 599 12 611 24 q 568 -8 586 0 q 525 -17 550 -17 z "},"b":{"ha":736,"x_min":25,"x_max":681,"o":"m 343 -21 q 213 4 264 -21 q 133 61 163 29 l 100 0 l 86 0 l 86 935 q 67 988 86 968 q 25 1021 49 1008 l 25 1024 l 156 1082 l 156 563 l 160 563 q 258 652 197 624 q 388 681 319 681 q 505 657 451 681 q 597 590 558 633 q 658 485 636 547 q 681 349 681 424 q 660 212 681 278 q 597 94 639 146 q 492 10 556 42 q 343 -21 428 -21 m 360 4 q 454 27 410 4 q 531 93 499 50 q 581 197 563 136 q 600 335 600 258 q 581 463 600 407 q 528 556 561 518 q 449 614 494 594 q 350 633 403 633 q 234 601 288 632 q 156 533 181 571 l 156 235 q 172 131 156 174 q 217 59 189 88 q 283 17 246 31 q 360 4 319 4 z "},"c":{"ha":664,"x_min":56,"x_max":615,"o":"m 615 154 q 520 27 589 75 q 356 -21 451 -21 q 235 3 290 -21 q 140 69 179 26 q 78 174 100 113 q 56 311 56 235 q 84 467 56 399 q 160 583 113 535 q 272 656 208 631 q 404 681 335 681 q 518 663 471 681 q 590 635 565 646 l 600 504 l 592 501 q 500 617 546 579 q 381 656 454 656 q 200 576 268 656 q 132 349 132 496 q 147 226 132 282 q 194 130 163 171 q 272 66 225 89 q 379 43 318 43 q 508 70 443 43 q 608 157 572 97 l 615 154 z "},"d":{"ha":754,"x_min":56,"x_max":711,"o":"m 375 26 q 494 60 442 26 q 581 147 547 94 l 581 461 q 565 557 581 519 q 522 616 549 594 q 464 647 496 638 q 400 656 432 656 q 294 631 343 656 q 210 564 246 607 q 156 461 175 521 q 136 331 136 401 q 154 203 136 260 q 203 108 172 147 q 278 47 235 68 q 375 26 322 26 m 582 119 q 544 67 567 92 q 492 22 522 42 q 423 -9 463 3 q 335 -21 383 -21 q 220 2 272 -21 q 132 67 168 25 q 76 170 96 110 q 56 306 56 231 q 81 447 56 379 q 155 567 107 515 q 270 650 203 619 q 419 681 338 681 q 508 671 467 681 q 581 643 549 661 l 581 935 q 562 988 581 968 q 519 1021 543 1008 l 519 1024 l 650 1082 l 650 149 q 653 95 650 115 q 663 63 656 75 q 683 42 671 50 q 711 28 694 35 l 711 25 l 588 -17 l 588 119 l 582 119 z "},"e":{"ha":664,"x_min":56,"x_max":615,"o":"m 361 656 q 215 598 274 656 q 139 435 157 540 l 524 443 l 524 451 q 482 606 524 557 q 361 656 440 656 m 615 154 q 520 27 589 75 q 354 -21 451 -21 q 232 3 288 -21 q 138 73 176 28 q 77 181 99 118 q 56 319 56 243 q 81 468 56 401 q 148 582 106 535 q 247 655 190 629 q 365 681 303 681 q 472 658 425 681 q 551 599 519 636 q 599 513 583 561 q 611 414 615 465 l 136 414 q 132 350 132 385 q 147 227 132 283 q 194 130 163 171 q 271 66 225 89 q 379 43 317 43 q 508 70 444 43 q 608 157 572 97 l 615 154 z "},"f":{"ha":404,"x_min":51,"x_max":439,"o":"m 106 3 q 131 72 124 31 q 139 193 139 114 l 139 635 l 51 635 l 51 660 l 139 660 l 139 797 q 192 1007 139 932 q 340 1082 244 1082 q 391 1076 369 1082 q 422 1063 413 1069 l 439 951 l 431 949 q 367 1029 392 1004 q 308 1054 343 1054 q 237 1005 265 1054 q 208 858 208 956 l 208 660 l 372 660 l 372 635 l 208 635 l 208 193 q 217 72 208 114 q 240 3 225 31 l 240 0 l 106 0 l 106 3 z "},"g":{"ha":663,"x_min":21,"x_max":642,"o":"m 311 243 q 384 260 353 243 q 436 305 415 276 q 467 371 457 333 q 478 449 478 408 q 468 526 478 489 q 438 592 458 564 q 385 638 417 621 q 310 656 353 656 q 234 638 265 656 q 183 590 203 619 q 154 524 164 561 q 144 449 144 488 q 155 373 144 410 q 186 307 165 336 q 238 260 207 278 q 311 243 269 243 m 639 -108 q 616 -192 639 -154 q 551 -256 593 -229 q 448 -298 508 -283 q 313 -312 388 -312 q 192 -301 246 -312 q 101 -267 139 -289 q 42 -215 63 -246 q 21 -146 21 -185 q 32 -92 21 -117 q 61 -47 43 -67 q 103 -12 79 -26 q 151 8 126 1 q 75 45 99 19 q 51 107 51 71 q 65 160 51 138 q 101 200 79 183 q 151 227 124 217 q 204 243 178 238 q 105 326 143 271 q 67 449 67 382 q 85 536 67 494 q 138 610 104 578 q 215 662 171 643 q 310 681 260 681 q 399 665 357 681 q 474 621 442 649 l 639 696 l 642 694 l 642 606 l 636 606 l 488 608 q 538 536 519 576 q 556 449 556 496 q 536 360 556 401 q 483 287 517 318 q 406 237 450 256 q 311 218 361 218 q 222 235 264 218 q 145 194 174 219 q 117 133 117 169 q 122 110 117 121 q 140 89 126 99 q 176 74 153 79 q 238 67 200 68 l 397 61 q 508 44 463 58 q 583 8 554 31 q 626 -45 613 -15 q 639 -108 639 -75 m 336 -287 q 514 -248 449 -287 q 579 -133 579 -208 q 375 -1 579 -7 l 221 1 q 172 6 193 1 q 115 -40 140 -3 q 90 -128 90 -76 q 158 -248 90 -208 q 336 -287 225 -287 z "},"h":{"ha":718,"x_min":44,"x_max":650,"o":"m 75 0 l 75 3 q 100 74 94 39 q 106 165 106 110 l 106 917 q 87 981 106 957 q 44 1021 68 1006 l 44 1024 l 175 1082 l 175 560 q 293 651 228 622 q 425 681 358 681 q 571 626 522 681 q 619 478 619 572 l 619 167 q 624 74 619 110 q 650 3 628 38 l 650 0 l 519 0 l 519 3 q 544 76 539 39 q 550 165 550 113 l 550 463 q 542 527 550 497 q 516 579 535 557 q 467 614 497 601 q 394 626 438 626 q 282 606 340 626 q 175 535 224 585 l 175 165 q 179 75 175 111 q 206 3 183 39 l 206 0 l 75 0 z "},"i":{"ha":274,"x_min":44,"x_max":206,"o":"m 193 915 q 176 875 193 892 q 136 858 160 858 q 96 875 113 858 q 79 915 79 892 q 96 956 79 939 q 136 972 113 972 q 176 956 160 972 q 193 915 193 939 m 75 3 q 100 75 94 39 q 106 165 106 111 l 106 510 q 87 573 106 549 q 44 613 68 597 l 44 615 l 175 688 l 175 167 q 179 75 175 111 q 206 3 183 39 l 206 0 l 75 0 l 75 3 z "},"j":{"ha":264,"x_min":15,"x_max":193,"o":"m 193 915 q 176 875 193 892 q 136 858 160 858 q 96 875 113 858 q 79 915 79 892 q 96 956 79 939 q 136 972 113 972 q 176 956 160 972 q 193 915 193 939 m 15 -292 q 55 -265 38 -279 q 83 -228 72 -250 q 100 -174 94 -206 q 106 -97 106 -143 l 106 510 q 87 573 106 549 q 44 613 68 597 l 44 615 l 175 688 l 172 -78 q 135 -239 172 -189 q 18 -299 97 -289 l 15 -292 z "},"k":{"ha":607,"x_min":44,"x_max":593,"o":"m 75 3 q 100 75 94 39 q 106 165 106 111 l 106 935 q 87 988 106 968 q 44 1021 68 1008 l 44 1024 l 175 1082 l 175 167 q 179 76 175 113 q 206 3 183 39 l 206 0 l 75 0 l 75 3 m 468 0 l 210 346 l 407 569 q 428 615 426 593 q 394 657 431 638 l 394 660 l 556 660 l 556 657 q 514 637 531 646 q 484 617 497 628 q 459 592 471 606 q 431 558 447 578 l 274 381 l 463 128 q 498 83 482 103 q 529 49 514 64 q 560 24 544 35 q 593 3 575 13 l 593 0 l 468 0 z "},"l":{"ha":274,"x_min":44,"x_max":206,"o":"m 75 3 q 100 75 94 39 q 106 165 106 111 l 106 935 q 87 988 106 968 q 44 1021 68 1008 l 44 1024 l 175 1082 l 175 167 q 179 76 175 113 q 206 3 183 39 l 206 0 l 75 0 l 75 3 z "},"m":{"ha":1039,"x_min":44,"x_max":971,"o":"m 207 0 l 75 0 l 75 3 q 101 72 94 38 q 107 163 107 107 l 107 506 q 88 572 107 547 q 44 614 69 597 l 44 617 l 171 690 l 171 561 l 176 560 q 271 647 214 614 q 400 681 328 681 q 506 649 471 681 q 554 558 542 617 l 558 557 q 653 646 597 611 q 783 681 710 681 q 906 630 872 681 q 940 492 940 579 l 940 164 q 945 72 940 107 q 971 3 950 38 l 971 0 l 840 0 l 840 3 q 865 74 860 38 q 871 163 871 110 l 871 478 q 866 535 871 508 q 847 583 861 563 q 810 615 833 603 q 747 626 786 626 q 638 597 683 626 q 558 532 592 568 l 558 164 q 563 72 558 107 q 590 3 568 38 l 590 0 l 458 0 l 458 3 q 483 74 478 38 q 489 163 489 110 l 489 478 q 484 535 489 508 q 466 583 479 563 q 428 615 453 603 q 364 626 403 626 q 255 599 300 626 q 176 535 210 571 l 176 164 q 181 74 176 110 q 207 3 186 38 l 207 0 z "},"n":{"ha":718,"x_min":44,"x_max":650,"o":"m 206 0 l 75 0 l 75 3 q 100 74 94 39 q 106 165 106 110 l 106 508 q 87 573 106 549 q 44 613 68 597 l 44 615 l 169 688 l 169 561 l 175 560 q 293 651 228 622 q 425 681 358 681 q 571 626 522 681 q 619 478 619 572 l 619 167 q 624 74 619 110 q 650 3 628 38 l 650 0 l 519 0 l 519 3 q 544 76 539 39 q 550 165 550 113 l 550 463 q 542 527 550 497 q 516 579 535 557 q 467 614 497 601 q 394 626 438 626 q 279 605 339 626 q 175 535 219 583 l 175 167 q 179 75 175 111 q 206 3 183 39 l 206 0 z "},"o":{"ha":781,"x_min":49,"x_max":732,"o":"m 390 -21 q 258 6 321 -21 q 149 81 196 33 q 76 192 103 128 q 49 329 49 256 q 76 467 49 403 q 149 578 103 531 q 258 653 196 626 q 390 681 321 681 q 522 653 460 681 q 631 578 585 626 q 705 467 678 531 q 732 329 732 403 q 705 192 732 256 q 631 81 678 128 q 522 6 585 33 q 390 -21 460 -21 m 390 4 q 502 30 454 4 q 582 99 550 56 q 630 202 614 143 q 646 329 646 261 q 630 456 646 397 q 581 560 614 515 q 501 630 549 604 q 390 656 453 656 q 280 630 328 656 q 199 560 232 604 q 151 456 167 515 q 135 329 135 397 q 151 202 135 261 q 199 99 167 143 q 278 30 231 56 q 390 4 326 4 z "},"p":{"ha":756,"x_min":44,"x_max":700,"o":"m 363 4 q 467 27 419 4 q 548 93 514 50 q 601 197 582 136 q 619 333 619 258 q 600 462 619 406 q 548 556 581 518 q 471 614 515 594 q 376 633 426 633 q 254 602 308 633 q 175 533 200 571 l 175 96 q 256 28 208 51 q 363 4 304 4 m 75 -312 l 75 -310 q 100 -238 94 -274 q 106 -147 106 -203 l 106 508 q 87 573 106 549 q 44 613 68 597 l 44 615 l 169 688 l 169 564 l 179 563 q 278 652 217 624 q 407 681 339 681 q 524 657 471 681 q 617 590 578 633 q 678 485 656 547 q 700 349 700 424 q 679 212 700 278 q 616 94 658 146 q 508 10 574 42 q 356 -21 443 -21 q 244 -4 285 -21 q 175 33 203 13 l 175 -146 q 179 -237 175 -201 q 206 -310 183 -274 l 206 -312 l 75 -312 z "},"q":{"ha":740,"x_min":56,"x_max":681,"o":"m 549 -310 q 574 -237 568 -274 q 581 -147 581 -201 l 581 117 q 491 21 550 63 q 335 -21 432 -21 q 220 2 272 -21 q 132 67 168 25 q 76 170 96 110 q 56 306 56 231 q 81 447 56 379 q 155 567 107 515 q 270 650 203 619 q 419 681 338 681 q 518 668 472 681 q 596 633 564 656 l 647 676 l 650 676 l 650 -146 q 654 -237 650 -201 q 681 -310 658 -274 l 681 -312 l 549 -312 l 549 -310 m 375 26 q 494 60 442 26 q 581 147 547 94 l 581 461 q 565 557 581 519 q 523 616 549 594 q 465 647 497 638 q 400 656 432 656 q 294 631 343 656 q 210 564 246 607 q 156 461 175 521 q 136 331 136 401 q 154 203 136 260 q 203 108 172 147 q 278 47 235 68 q 375 26 322 26 z "},"r":{"ha":429,"x_min":44,"x_max":401,"o":"m 75 3 q 100 74 94 39 q 106 165 106 110 l 106 508 q 87 573 106 549 q 44 613 68 597 l 44 615 l 169 688 l 169 519 l 176 518 q 226 572 201 543 q 276 624 250 600 q 333 665 303 649 q 401 681 364 681 l 401 569 l 399 569 q 353 585 383 579 q 297 590 322 590 q 275 581 289 590 q 244 558 261 572 q 210 524 228 543 q 175 486 192 506 l 175 167 q 179 75 175 111 q 206 3 183 39 l 206 0 l 75 0 l 75 3 z "},"s":{"ha":521,"x_min":44,"x_max":486,"o":"m 449 532 l 438 529 q 356 630 399 604 q 261 656 313 656 q 154 622 196 656 q 113 533 113 589 q 126 478 113 500 q 164 438 140 456 q 220 408 188 421 q 289 381 253 394 q 360 350 325 367 q 424 309 396 333 q 469 251 451 285 q 486 169 486 218 q 424 31 486 82 q 242 -21 363 -21 q 131 -8 175 -21 q 58 19 86 6 l 44 161 l 56 164 q 139 42 90 81 q 261 4 188 4 q 387 46 344 4 q 429 146 429 88 q 415 206 429 181 q 376 249 400 231 q 320 282 351 268 q 254 308 289 296 q 184 337 219 321 q 120 376 149 353 q 74 430 92 399 q 56 507 56 461 q 76 589 56 556 q 128 642 96 622 q 201 672 160 663 q 285 681 243 681 q 367 674 328 681 q 435 656 407 667 l 449 532 z "},"t":{"ha":443,"x_min":43,"x_max":408,"o":"m 257 -21 q 208 -14 232 -21 q 163 10 183 -7 q 131 58 143 28 q 118 132 118 88 l 118 635 l 43 635 l 43 638 l 185 761 l 188 761 l 188 660 l 393 660 l 393 635 l 188 635 l 188 129 q 212 49 188 76 q 289 22 236 22 q 358 33 326 22 q 406 51 390 43 l 408 46 q 388 27 401 39 q 356 5 375 15 q 311 -13 336 -6 q 257 -21 286 -21 z "},"u":{"ha":681,"x_min":28,"x_max":628,"o":"m 503 103 q 408 17 464 54 q 271 -21 351 -21 q 133 31 181 -21 q 86 174 86 83 l 86 568 q 70 622 86 600 q 28 657 54 643 l 28 660 l 156 660 l 156 196 q 190 74 156 115 q 300 33 225 33 q 415 60 367 33 q 496 121 464 88 l 496 568 q 435 657 496 629 l 435 660 l 565 660 l 565 154 q 569 100 565 121 q 580 66 572 79 q 599 45 588 53 q 628 31 611 38 l 628 28 l 503 -17 l 503 103 z "},"v":{"ha":572,"x_min":0,"x_max":579,"o":"m 82 515 q 61 567 71 544 q 42 606 51 589 q 23 635 33 622 q 0 657 13 647 l 0 660 l 163 660 l 163 657 q 136 605 140 638 q 156 513 132 572 l 310 106 l 458 501 q 478 601 482 564 q 442 657 474 638 l 442 660 l 579 660 l 579 657 q 551 633 563 644 q 531 605 540 621 q 511 567 521 589 q 490 513 501 544 l 292 -7 l 283 -7 l 82 515 z "},"w":{"ha":883,"x_min":14,"x_max":876,"o":"m 256 -8 l 90 517 q 52 610 71 578 q 14 657 33 642 l 14 660 l 169 660 l 169 657 q 154 610 160 646 q 164 524 149 574 l 282 115 l 429 515 l 429 517 q 394 605 411 568 q 354 657 378 642 l 354 660 l 503 660 l 503 657 q 490 608 493 646 q 508 507 488 571 l 636 117 l 758 500 q 774 600 778 563 q 739 657 771 638 l 739 660 l 876 660 l 876 657 q 849 633 860 644 q 828 605 838 621 q 810 567 819 589 q 792 513 801 544 l 621 -8 l 613 -8 l 443 478 l 264 -8 l 256 -8 z "},"x":{"ha":588,"x_min":7,"x_max":574,"o":"m 154 0 l 7 0 l 7 3 q 43 27 28 17 q 72 49 58 38 q 97 77 85 61 q 125 117 110 93 l 258 328 l 140 518 q 110 562 126 540 q 78 602 94 583 q 48 635 63 621 q 21 657 33 649 l 21 660 l 183 660 l 183 657 q 174 603 163 632 q 217 525 185 575 l 307 378 l 407 538 q 434 609 435 582 q 413 657 433 636 l 413 660 l 560 660 l 560 657 q 524 633 539 643 q 495 610 508 622 q 469 583 482 599 q 442 543 457 567 l 322 354 l 454 142 q 484 98 468 119 q 516 58 500 76 q 547 25 532 39 q 574 3 561 11 l 574 0 l 411 0 l 411 3 q 421 56 432 28 q 378 135 410 85 l 274 303 l 160 122 q 133 51 132 79 q 154 3 133 24 l 154 0 z "},"y":{"ha":572,"x_min":0,"x_max":579,"o":"m 28 -236 q 74 -228 46 -236 q 133 -202 103 -221 q 192 -153 164 -183 q 239 -74 221 -122 l 274 17 l 82 515 q 61 567 71 544 q 42 606 51 589 q 23 635 33 622 q 0 657 13 647 l 0 660 l 163 660 l 163 657 q 137 605 140 638 q 156 513 133 572 l 308 107 l 458 501 q 478 601 482 564 q 442 657 474 638 l 442 660 l 579 660 l 579 657 q 551 633 563 644 q 531 605 540 621 q 512 567 521 589 q 490 513 503 544 l 250 -112 q 156 -260 210 -215 q 31 -312 103 -304 l 28 -236 z "},"z":{"ha":572,"x_min":28,"x_max":531,"o":"m 28 0 l 28 10 l 442 636 l 231 631 q 185 622 204 631 q 148 598 165 613 q 113 563 131 583 l 75 517 l 68 519 l 114 660 l 529 660 l 529 649 l 117 24 l 350 28 q 403 36 381 28 q 446 60 426 44 q 483 100 465 76 q 524 156 501 124 l 531 153 l 482 0 l 28 0 z "},"‘":{"ha":289,"x_min":83,"x_max":222,"o":"m 222 1040 q 172 970 194 1008 q 150 899 150 932 q 167 856 150 879 q 203 815 183 833 l 203 813 l 132 756 q 97 793 111 771 q 83 839 83 815 q 97 904 83 874 q 129 961 110 935 q 172 1010 149 988 q 214 1049 194 1032 l 222 1040 z "},"’":{"ha":289,"x_min":67,"x_max":206,"o":"m 67 764 q 117 834 94 796 q 139 906 139 872 q 122 948 139 925 q 86 989 106 971 l 86 992 l 157 1049 q 192 1011 178 1033 q 206 965 206 989 q 192 900 206 931 q 160 843 179 869 q 117 794 140 817 q 75 756 94 772 l 67 764 z "},"“":{"ha":469,"x_min":83,"x_max":403,"o":"m 222 1040 q 172 970 194 1008 q 150 899 150 932 q 167 856 150 879 q 203 815 183 833 l 203 813 l 132 756 q 97 793 111 771 q 83 839 83 815 q 97 904 83 874 q 129 961 110 935 q 172 1010 149 988 q 214 1049 194 1032 l 222 1040 m 403 1040 q 353 970 375 1008 q 331 899 331 932 q 347 856 331 879 q 383 815 364 833 l 383 813 l 313 756 q 278 793 292 771 q 264 839 264 815 q 277 904 264 874 q 310 961 290 935 q 352 1010 329 988 q 394 1049 375 1032 l 403 1040 z "},"”":{"ha":483,"x_min":67,"x_max":400,"o":"m 261 764 q 311 834 289 796 q 333 906 333 872 q 317 948 333 925 q 281 989 300 971 l 281 992 l 351 1049 q 386 1011 372 1033 q 400 965 400 989 q 387 900 400 931 q 354 843 374 869 q 312 794 335 817 q 269 756 289 772 l 261 764 m 67 764 q 117 834 94 796 q 139 906 139 872 q 122 948 139 925 q 86 989 106 971 l 86 992 l 157 1049 q 192 1011 178 1033 q 206 965 206 989 q 192 900 206 931 q 160 843 179 869 q 117 794 140 817 q 75 756 94 772 l 67 764 z "}}}
